<!-- Generated by IcoMoon.io -->
<svg version="1.1" xmlns="http://www.w3.org/2000/svg" width="16" height="16" viewBox="0 0 16 16">
<title>shield2</title>
<path d="M8 1.639l4.5 2.455-0 3.406c0 0.953-0.117 1.784-0.359 2.541-0.232 0.728-0.575 1.369-1.047 1.96-0.699 0.874-1.664 1.617-3.094 2.375-1.43-0.758-2.395-1.501-3.094-2.375-0.472-0.591-0.815-1.232-1.047-1.96-0.241-0.756-0.359-1.588-0.359-2.541v-3.406l4.5-2.455zM8 0c-0.082 0-0.165 0.020-0.239 0.061l-5.5 3c-0.161 0.088-0.261 0.256-0.261 0.439v4c0 2.2 0.567 3.978 1.735 5.437 0.912 1.14 2.159 2.068 4.042 3.010 0.070 0.035 0.147 0.053 0.224 0.053s0.153-0.018 0.224-0.053c1.883-0.942 3.13-1.87 4.042-3.010 1.167-1.459 1.735-3.238 1.735-5.437l0-4c0-0.183-0.1-0.351-0.261-0.439l-5.5-3c-0.075-0.041-0.157-0.061-0.239-0.061v0z"></path>
<path d="M5 4.984v2.516c0 0.796 0.094 1.478 0.288 2.085 0.176 0.55 0.434 1.034 0.79 1.479 0.456 0.57 1.064 1.075 1.923 1.591 0.859-0.516 1.467-1.021 1.923-1.591 0.356-0.445 0.614-0.928 0.789-1.479 0.194-0.607 0.288-1.289 0.288-2.085l0-2.516-3-1.636-3 1.636z"></path>
</svg>
