<svg xmlns="http://www.w3.org/2000/svg" width="16" height="16" viewBox="0 0 16 16"><title>shield2</title><path d="M8 1.639l4.5 2.455V7.5c0 .953-.117 1.784-.359 2.541a6.01 6.01 0 01-1.047 1.96c-.699.874-1.664 1.617-3.094 2.375-1.43-.758-2.395-1.501-3.094-2.375a6.01 6.01 0 01-1.047-1.96C3.618 9.285 3.5 8.453 3.5 7.5V4.094L8 1.639zM8 0a.494.494 0 00-.239.061l-5.5 3A.5.5 0 002 3.5v4c0 2.2.567 3.978 1.735 5.437.912 1.14 2.159 2.068 4.042 3.01a.502.502 0 00.448 0c1.883-.942 3.13-1.87 4.042-3.01 1.167-1.459 1.735-3.238 1.735-5.437v-4a.5.5 0 00-.261-.439l-5.5-3A.497.497 0 008.002 0z"/><path d="M5 4.984V7.5c0 .796.094 1.478.288 2.085a4.54 4.54 0 00.79 1.479c.456.57 1.064 1.075 1.923 1.591.859-.516 1.467-1.021 1.923-1.591.356-.445.614-.928.789-1.479.194-.607.288-1.289.288-2.085V4.984l-3-1.636-3 1.636z"/></svg>